<svg width="980" height="146" viewBox="0 0 980 146" fill="none" xmlns="http://www.w3.org/2000/svg">
<path d="M78.48 112H1.68V108.032L13.712 98.56V20.992L0.4 16.512L2.96 11.392H77.2L84.112 9.088V38.528L80.272 39.808L65.04 17.152H29.712V57.728H49.808L59.152 41.344H63.12V80.256L58 82.816L49.936 63.488H29.712V106.24H64.528L81.552 81.024L85.392 82.304V114.304L78.48 112ZM223.05 112H198.73V68.864C198.73 64.1707 198.005 60.8853 196.554 59.008C195.103 57.1307 192.501 56.192 188.746 56.192C186.101 56.192 183.498 56.704 180.938 57.728C178.378 58.6667 175.349 60.5867 171.85 63.488V102.4L183.37 106.88L180.81 112H156.49V68.864C156.49 64.1707 155.765 60.8853 154.314 59.008C152.863 57.1307 150.261 56.192 146.506 56.192C143.861 56.192 141.258 56.704 138.698 57.728C136.138 58.6667 133.109 60.5867 129.61 63.488V102.4L141.13 106.88L138.57 112H102.858V108.032L114.25 99.072V62.848L102.858 56.192V52.224L124.746 41.472L128.842 57.856L145.866 43.648C147.658 42.9653 150.005 42.624 152.906 42.624C157.855 42.624 161.951 43.9893 165.194 46.72C168.437 49.3653 170.485 53.0347 171.338 57.728L187.978 43.776C189.77 43.0933 192.117 42.752 195.018 42.752C200.821 42.752 205.429 44.544 208.842 48.128C212.255 51.6267 213.962 56.4053 213.962 62.464V102.4L225.61 106.88L223.05 112ZM283.09 42.752C287.698 42.752 291.837 44.2453 295.506 47.232C299.261 50.1333 302.162 54.1013 304.21 59.136C306.343 64.1707 307.41 69.7173 307.41 75.776C307.41 82.3467 305.405 88.5333 301.394 94.336C297.383 100.053 292.349 104.661 286.29 108.16C280.317 111.573 274.514 113.28 268.882 113.28C265.383 113.28 262.098 112.512 259.026 110.976C256.039 109.44 253.394 107.264 251.09 104.448L245.586 112H240.722V20.352L229.33 12.416V8.448L251.218 0.255997H256.082V57.344L273.234 43.776C275.965 43.0933 279.25 42.752 283.09 42.752ZM276.306 102.528C285.949 102.528 290.77 95.6587 290.77 81.92C290.77 73.984 289.533 67.2853 287.058 61.824C284.583 56.3627 281.085 53.632 276.562 53.632C273.319 53.632 270.162 54.272 267.09 55.552C264.018 56.832 260.349 59.3493 256.082 63.104V86.016C256.082 90.7093 257.831 94.6347 261.33 97.792C264.829 100.949 269.821 102.528 276.306 102.528ZM361.308 42.752C366.94 42.752 371.975 44.2453 376.412 47.232C380.935 50.1333 384.433 54.1013 386.908 59.136C389.468 64.1707 390.748 69.7173 390.748 75.776C390.748 82.3467 388.743 88.5333 384.732 94.336C380.721 100.053 375.687 104.661 369.628 108.16C363.655 111.573 357.852 113.28 352.22 113.28C346.588 113.28 341.511 111.829 336.988 108.928C332.551 105.941 329.052 101.931 326.492 96.896C324.017 91.8613 322.78 86.3147 322.78 80.256C322.78 73.6853 324.785 67.5413 328.796 61.824C332.807 56.0213 337.799 51.4133 343.772 48C349.831 44.5013 355.676 42.752 361.308 42.752ZM353.884 53.504C344.241 53.504 339.42 60.3733 339.42 74.112C339.42 82.2187 341.169 89.0027 344.668 94.464C348.167 99.84 353.159 102.528 359.644 102.528C369.287 102.528 374.108 95.616 374.108 81.792C374.108 73.7707 372.359 67.072 368.86 61.696C365.361 56.2347 360.369 53.504 353.884 53.504ZM481.487 112H457.167V102.784L445.263 112.256C442.532 112.939 439.247 113.28 435.407 113.28C429.775 113.28 424.698 111.829 420.175 108.928C415.738 105.941 412.239 101.931 409.679 96.896C407.204 91.8613 405.967 86.3147 405.967 80.256C405.967 73.6853 407.972 67.5413 411.983 61.824C415.994 56.0213 420.986 51.4133 426.959 48C433.018 44.5013 438.863 42.752 444.495 42.752C449.188 42.752 453.455 44.0747 457.295 46.72V20.352L445.903 12.416V8.448L467.791 0.255997H472.655V102.4L484.047 106.88L481.487 112ZM441.935 102.4C444.495 102.4 446.927 102.059 449.231 101.376C451.62 100.608 454.266 99.2 457.167 97.152V67.968C456.655 63.7013 454.65 60.2453 451.151 57.6C447.738 54.8693 443.044 53.504 437.071 53.504C427.428 53.504 422.607 60.3733 422.607 74.112C422.607 82.1333 424.271 88.8747 427.599 94.336C430.927 99.712 435.706 102.4 441.935 102.4ZM527.577 112H491.865V108.032L503.257 99.072V61.696L491.865 53.76V49.792L513.753 41.6H518.617V102.4L530.137 106.88L527.577 112ZM510.425 3.2C512.985 3.2 515.076 4.13866 516.697 6.01599C518.404 7.89333 519.257 10.24 519.257 13.056C519.257 15.0187 518.66 16.896 517.465 18.688C516.27 20.3947 514.777 21.76 512.985 22.784C511.193 23.808 509.444 24.32 507.737 24.32C505.177 24.32 503.044 23.3813 501.337 21.504C499.716 19.6267 498.905 17.28 498.905 14.464C498.905 12.5013 499.502 10.6667 500.697 8.95999C501.892 7.16799 503.385 5.75999 505.177 4.73599C506.969 3.712 508.718 3.2 510.425 3.2ZM582.703 112.256C579.29 112.939 575.194 113.28 570.415 113.28C564.783 113.28 559.706 111.829 555.183 108.928C550.746 105.941 547.247 101.931 544.687 96.896C542.212 91.8613 540.975 86.3147 540.975 80.256C540.975 73.6853 542.98 67.5413 546.991 61.824C551.002 56.0213 555.994 51.4133 561.967 48C568.026 44.5013 573.871 42.752 579.503 42.752C587.61 42.752 593.882 45.952 598.319 52.352C602.842 58.752 605.103 67.2 605.103 77.696H557.743C558.255 84.9493 560.218 90.88 563.631 95.488C567.13 100.096 571.866 102.4 577.839 102.4C583.386 102.4 591.279 98.0907 601.519 89.472L605.359 94.336L582.703 112.256ZM572.079 53.504C562.863 53.504 558.042 59.8187 557.615 72.448H587.567C586.799 67.84 585.988 64.3413 585.135 61.952C584.367 59.4773 582.959 57.472 580.911 55.936C578.948 54.3147 576.004 53.504 572.079 53.504ZM696.057 112H671.737V102.784L659.833 112.256C657.102 112.939 653.817 113.28 649.977 113.28C644.345 113.28 639.268 111.829 634.745 108.928C630.308 105.941 626.809 101.931 624.249 96.896C621.774 91.8613 620.537 86.3147 620.537 80.256C620.537 73.6853 622.542 67.5413 626.553 61.824C630.564 56.0213 635.556 51.4133 641.529 48C647.588 44.5013 653.433 42.752 659.065 42.752C663.758 42.752 668.025 44.0747 671.865 46.72V20.352L660.473 12.416V8.448L682.361 0.255997H687.225V102.4L698.617 106.88L696.057 112ZM656.505 102.4C659.065 102.4 661.497 102.059 663.801 101.376C666.19 100.608 668.836 99.2 671.737 97.152V67.968C671.225 63.7013 669.22 60.2453 665.721 57.6C662.308 54.8693 657.614 53.504 651.641 53.504C641.998 53.504 637.177 60.3733 637.177 74.112C637.177 82.1333 638.841 88.8747 642.169 94.336C645.497 99.712 650.276 102.4 656.505 102.4ZM763.395 8.83199C767.918 8.83199 773.123 9.472 779.011 10.752C784.984 12.032 789.336 13.3973 792.067 14.848V39.68H787.203C779.352 26.2827 768.942 19.584 755.971 19.584C750.339 19.584 745.176 21.248 740.483 24.576C735.875 27.8187 732.248 32.384 729.603 38.272C726.958 44.0747 725.635 50.6027 725.635 57.856C725.635 66.2187 726.915 73.856 729.475 80.768C732.12 87.68 736.088 93.2267 741.379 97.408C746.755 101.589 753.368 103.68 761.219 103.68C768.472 103.68 778.883 98.2187 792.451 87.296L796.291 93.44L772.739 111.744C769.582 112.853 766.51 113.579 763.523 113.92C760.622 114.347 757.464 114.56 754.051 114.56C745.091 114.56 737.155 112.384 730.243 108.032C723.331 103.68 717.955 97.7067 714.115 90.112C710.275 82.432 708.355 73.728 708.355 64C708.355 54.016 711.256 44.8 717.059 36.352C722.862 27.8187 730.072 21.12 738.691 16.256C747.31 11.3067 755.544 8.83199 763.395 8.83199ZM844.587 112H808.875V108.032L820.267 99.072V61.696L808.875 53.76V49.792L830.763 41.6H835.627V102.4L847.147 106.88L844.587 112ZM827.435 3.2C829.995 3.2 832.086 4.13866 833.707 6.01599C835.414 7.89333 836.267 10.24 836.267 13.056C836.267 15.0187 835.67 16.896 834.475 18.688C833.28 20.3947 831.787 21.76 829.995 22.784C828.203 23.808 826.454 24.32 824.747 24.32C822.187 24.32 820.054 23.3813 818.347 21.504C816.726 19.6267 815.915 17.28 815.915 14.464C815.915 12.5013 816.512 10.6667 817.707 8.95999C818.902 7.16799 820.395 5.75999 822.187 4.73599C823.979 3.712 825.728 3.2 827.435 3.2ZM892.545 112.256C890.582 112.939 888.193 113.28 885.377 113.28C878.294 113.28 873.089 111.445 869.761 107.776C866.518 104.021 864.897 98.2613 864.897 90.496V53.12H851.073V47.872L875.393 19.584H880.257V47.872H903.297V53.12H880.257V92.032C880.257 98.944 883.585 102.4 890.241 102.4C892.033 102.4 893.74 102.016 895.361 101.248C897.068 100.48 899.158 99.1147 901.633 97.152L905.473 102.016L892.545 112.256ZM979.464 48L947.08 112L920.456 145.792L915.592 141.952C920.456 136.747 924.125 132.181 926.6 128.256C929.16 124.331 930.952 120.363 931.976 116.352C933 112.427 933.512 107.733 933.512 102.272L917.384 63.232L905.48 56.32V52.352L927.368 41.6L932.232 60.928L947.848 99.072L965.896 61.568L948.872 49.152L951.432 44.032H979.464V48Z" fill="black"/>
</svg>
