<svg width="157" height="157" viewBox="0 0 157 157" fill="none" xmlns="http://www.w3.org/2000/svg">
<rect width="157" height="157" rx="30" fill="#0F0F0F"/>
<path d="M49.5 116.3C46.1 116.3 43.2333 115.4 40.9 113.6C38.6333 111.8 36.8333 109.333 35.5 106.2C34.1667 103.067 33.2 99.5333 32.6 95.6C32 91.6 31.6667 87.4333 31.6 83.1L29.6 82.7C28.9333 82.5 28.3333 81.8 27.8 80.6C27.2667 79.3333 26.9667 78.4333 26.9 77.9C26.9 77.5667 26.9667 77.4 27.1 77.4C27.2333 77.3333 27.3333 77.3 27.4 77.3C28.1333 77.3667 28.8667 77.4667 29.6 77.6C30.3333 77.6667 31.0333 77.7333 31.7 77.8C31.7667 75.9333 31.8667 73.6 32 70.8C32.2 67.9333 32.4 65.0667 32.6 62.2C32.8667 59.2667 33.1667 56.8 33.5 54.8C33.1 54.6667 32.7 54.5667 32.3 54.5C31.9 54.4333 31.5 54.3333 31.1 54.2C30.4333 53.7333 29.9333 53.0333 29.6 52.1C29.2667 51.1667 29.1 50.5333 29.1 50.2C29.1 49.8667 29.1667 49.7 29.3 49.7L36.4 50.3L43.7 45.3L46.3 46.9L45.1 50.4C49.4333 50.3333 53.7333 49.9333 58 49.2C62.2667 48.4667 66.2667 47.1667 70 45.3L71.7 47.9L68.4 56.5C63.7333 57.1 59.1667 57.4 54.7 57.4C52.8333 57.4 50.9667 57.3667 49.1 57.3C47.3 57.1667 45.4667 56.9667 43.6 56.7C42.9333 59.7 42.2667 63.0667 41.6 66.8C41 70.4667 40.5333 74.2333 40.2 78.1H42.5C47.0333 78.1 50.9 77.7333 54.1 77C57.3667 76.2667 60.0667 75.4667 62.2 74.6L63.1 76.3L60.1 83.2C58.2333 83.5333 56.1667 83.8 53.9 84C51.7 84.2 49.6333 84.3 47.7 84.3C45.0333 84.3 42.4 84.2 39.8 84C39.7333 84.6667 39.7 85.3333 39.7 86C39.7 86.6667 39.7 87.3333 39.7 88C39.7 92.0667 40.1 95.8333 40.9 99.3C41.7 102.7 42.9 105.433 44.5 107.5C46.1667 109.5 48.2667 110.5 50.8 110.5C55 110.5 58.2667 109.033 60.6 106.1C62.9333 103.1 64.9333 98.5667 66.6 92.5C66.7333 91.9667 66.9667 91.7 67.3 91.7C67.6333 91.7 68.0667 91.8 68.6 92C69.2 92.2 69.8 92.5667 70.4 93.1C69.5333 97.4333 68.2333 101.367 66.5 104.9C64.8333 108.433 62.6 111.2 59.8 113.2C57.0667 115.267 53.6333 116.3 49.5 116.3ZM98.4992 116.2C94.2326 116.2 90.5659 115 87.4992 112.6C84.4992 110.2 82.1992 106.867 80.5992 102.6C78.9992 98.2667 78.1992 93.3333 78.1992 87.8C78.1992 83.6667 78.8992 79.4 80.2992 75C81.7659 70.5333 84.0992 66.2667 87.2992 62.2C90.4992 58.1333 94.7659 54.6 100.099 51.6C105.433 48.6 111.999 46.5 119.799 45.3L121.499 47.9L118.199 56.5C117.133 56.3667 116.099 56.2667 115.099 56.2C114.166 56.1333 113.233 56.1 112.299 56.1C107.366 56.1 103.266 56.9333 99.9992 58.6C96.7326 60.2 94.1659 62.3333 92.2992 65C90.4326 67.6 89.0992 70.4333 88.2992 73.5C87.4992 76.5667 87.0992 79.5 87.0992 82.3C87.0992 88.1 87.6992 92.8667 88.8992 96.6C90.1659 100.333 91.7992 103.1 93.7992 104.9C95.7992 106.633 97.8659 107.5 99.9992 107.5C104.666 107.5 108.499 105.667 111.499 102C114.566 98.2667 117.133 92.7667 119.199 85.5C119.333 84.9667 119.566 84.7 119.899 84.7C120.233 84.7 120.666 84.8 121.199 85C121.799 85.2 122.399 85.5667 122.999 86.1C122.066 92.4333 120.299 97.8667 117.699 102.4C115.166 106.867 112.199 110.3 108.799 112.7C105.399 115.033 101.966 116.2 98.4992 116.2Z" fill="#71A0C5"/>
</svg>
